<?xml version="1.0" encoding="utf-8"?>
<svg viewBox="0 0 500 400" xmlns="http://www.w3.org/2000/svg" xmlns:bx="https://boxy-svg.com">
  <path style="fill: rgb(216, 216, 216);" transform="matrix(0, 1.798365, -2.731823, 0, 1931.762085, -359.472839)" d="M 408.097 707.132 A 91.514 91.514 0 1 1 407.619 524.105 L 407.619 615.619 Z" bx:shape="pie 407.619 615.619 0 91.514 179.701 360 1@1ffa78dd"/>
  <rect x="149.618" y="85.164" width="202.703" height="140.87" style="fill: rgb(123, 101, 101);"/>
  <path d="M -250.968 0 L -110.308 87.933 L -391.628 87.933 L -250.968 0 Z" style="fill: rgb(123, 101, 101);" transform="matrix(-1, 0, 0, 1, 0, 0)" bx:shape="triangle -391.628 0 281.32 87.933 0.5 0 1@654720b9"/>
  <path style="fill: rgb(200, 200, 200);" transform="matrix(0, 2.321854, -1.059772, 0, 772.628845, -558.11908)" d="M 408.097 707.132 A 91.514 91.514 0 1 1 407.619 524.105 L 407.619 615.619 Z" bx:shape="pie 407.619 615.619 0 91.514 179.701 360 1@1ffa78dd"/>
  <path style="fill: rgb(174, 174, 174);" transform="matrix(0, 1.976642, -0.816192, 0, 879.311707, -423.981934)" d="M 408.097 707.132 A 91.514 91.514 0 1 1 407.619 524.105 L 407.619 615.619 Z" bx:shape="pie 407.619 615.619 0 91.514 179.701 360 1@1ffa78dd"/>
  <rect x="163.268" y="342.584" width="72.834" height="57.416" style="fill: rgb(123, 101, 101);"/>
  <path d="M -199.684 310.903 L -146.438 344.191 L -252.931 344.191 L -199.684 310.903 Z" style="fill: rgb(123, 101, 101);" transform="matrix(-1, 0, 0, 1, 0, 0)" bx:shape="triangle -252.931 310.903 106.493 33.288 0.5 0 1@560ee305"/>
  <rect x="294.476" y="345.863" width="49.114" height="42.112" style="fill: rgb(123, 101, 101);"/>
  <path d="M -319.034 326.435 L -284.007 349.264 L -354.061 349.264 L -319.034 326.435 Z" style="fill: rgb(123, 101, 101);" transform="matrix(-1, 0, 0, 1, 0, 0)" bx:shape="triangle -354.061 326.435 70.054 22.829 0.5 0 1@fc1bac39"/>
  <rect x="301.856" y="10.271" width="27.284" height="51.79" style="fill: rgb(123, 101, 101);"/>
  <rect x="217.437" y="312.814" width="12.746" height="28.347" style="fill: rgb(123, 101, 101);"/>
  <rect x="39.987" y="341.946" width="72.834" height="57.416" style="fill: rgb(123, 101, 101);"/>
  <path d="M -76.404 310.266 L -23.157 343.554 L -129.65 343.554 L -76.404 310.266 Z" style="fill: rgb(123, 101, 101);" transform="matrix(-1, 0, 0, 1, 0, 0)" bx:shape="triangle -129.65 310.266 106.493 33.288 0.5 0 1@b722b2f3"/>
  <rect x="94.156" y="312.177" width="12.746" height="28.347" style="fill: rgb(123, 101, 101);"/>
  <rect x="331.618" y="327.602" width="8.869" height="17.096" style="fill: rgb(123, 101, 101);"/>
  <rect x="379.338" y="345.908" width="49.114" height="42.112" style="fill: rgb(123, 101, 101);"/>
  <path d="M -403.896 326.48 L -368.869 349.309 L -438.923 349.309 L -403.896 326.48 Z" style="fill: rgb(123, 101, 101);" transform="matrix(-1, 0, 0, 1, 0, 0)" bx:shape="triangle -438.923 326.48 70.054 22.829 0.5 0 1@9a4b88c8"/>
  <rect x="416.48" y="327.647" width="8.869" height="17.096" style="fill: rgb(123, 101, 101);"/>
</svg>